<svg width="434" height="250" viewBox="0 0 434 250" fill="none" xmlns="http://www.w3.org/2000/svg">
<g id="Group 10">
<path id="Path 3" fill-rule="evenodd" clip-rule="evenodd" d="M374.372 -183.487C291.284 -209.517 205.849 -252.933 118.382 -173.633C30.915 -94.3323 -24.0749 -24.8655 11.436 65.0158C46.9468 154.897 191.899 98.9136 234.015 179.246C276.132 259.578 183.592 332.487 223.488 403.982C263.384 475.478 294.061 521.3 422.273 475.841C550.485 430.382 538.664 314.714 636.164 246.98C733.663 179.246 839.151 77.8456 694.385 -103.09C549.619 -284.025 457.46 -157.457 374.372 -183.487Z" stroke="#9E96C6"/>
<path id="Path 3 Copy" fill-rule="evenodd" clip-rule="evenodd" d="M384.485 -142.161C316.928 -163.299 247.463 -198.556 176.346 -134.159C105.23 -69.7621 60.5189 -13.3508 89.3917 59.6384C118.265 132.628 236.121 87.1654 270.365 152.4C304.608 217.635 229.367 276.841 261.805 334.9C294.244 392.959 319.186 430.169 423.432 393.254C527.678 356.338 518.066 262.408 597.34 207.404C676.614 152.4 762.383 70.057 644.678 -76.8735C526.973 -223.804 452.041 -121.023 384.485 -142.161Z" stroke="#9E96C6"/>
<path id="Path 3 Copy 2" fill-rule="evenodd" clip-rule="evenodd" d="M404.304 -113.491C349.455 -130.722 293.057 -159.464 235.317 -106.967C177.578 -54.471 141.277 -8.48457 164.719 51.0161C188.161 110.517 283.848 73.4561 311.651 126.636C339.453 179.815 278.365 228.08 304.701 275.409C331.038 322.738 351.288 353.072 435.925 322.979C520.562 292.885 512.759 216.314 577.121 171.475C641.483 126.636 711.119 59.5093 615.555 -60.2682C519.99 -180.046 459.153 -96.2589 404.304 -113.491Z" stroke="#9E96C6"/>
<path id="Path 3 Copy 5" fill-rule="evenodd" clip-rule="evenodd" d="M424.41 -80.1228C380.205 -93.9593 334.751 -117.038 288.216 -74.8848C241.682 -32.732 212.426 4.19353 231.318 51.9706C250.211 99.7476 327.329 69.9891 349.736 112.69C372.143 155.392 322.91 194.147 344.136 232.15C365.361 270.154 381.682 294.511 449.894 270.347C518.107 246.183 511.817 184.699 563.69 148.695C615.562 112.69 671.684 58.7903 594.665 -37.387C517.646 -133.564 468.615 -66.2862 424.41 -80.1228Z" stroke="#9E96C6"/>
<path id="Path 3 Copy 4" fill-rule="evenodd" clip-rule="evenodd" d="M429.756 -58.5595C393.696 -69.877 356.619 -88.7536 318.659 -54.2751C280.7 -19.7966 256.835 10.4063 272.246 49.4852C287.657 88.564 350.565 64.2233 368.843 99.1504C387.121 134.078 346.96 165.777 364.274 196.862C381.588 227.947 394.902 247.869 450.544 228.105C506.186 208.34 501.056 158.049 543.37 128.6C585.683 99.1504 631.463 55.0633 568.637 -23.6041C505.811 -102.272 465.815 -47.2421 429.756 -58.5595Z" stroke="#9E96C6"/>
<path id="Path 3 Copy 3" fill-rule="evenodd" clip-rule="evenodd" d="M440.455 -42.4982C411.13 -51.6617 380.976 -66.9457 350.105 -39.0292C319.235 -11.1128 299.827 13.3419 312.36 44.9831C324.893 76.6244 376.053 56.9163 390.917 85.196C405.782 113.476 373.121 139.142 387.202 164.311C401.283 189.48 412.11 205.61 457.361 189.607C502.612 173.604 498.44 132.885 532.852 109.041C567.263 85.196 604.494 49.4996 553.401 -14.1956C502.307 -77.8909 469.78 -33.3347 440.455 -42.4982Z" stroke="#9E96C6"/>
</g>
</svg>
